<?xml version="1.0" encoding="UTF-8" standalone="no"?>
<!DOCTYPE svg PUBLIC "-//W3C//DTD SVG 20010904//EN"
              "http://www.w3.org/TR/2001/REC-SVG-20010904/DTD/svg10.dtd">

<svg xmlns="http://www.w3.org/2000/svg"
     width="132.275mm" height="132.275mm"
     viewBox="0 0 500 500">
  <path id="Selection #2"
        fill="none" stroke="black" stroke-width="1"
        d="M 0.00,0.00
           C 0.00,0.00 500.00,0.00 500.00,0.00
             500.00,0.00 500.00,500.00 500.00,500.00
             500.00,500.00 0.00,500.00 0.00,500.00
             0.00,500.00 0.00,0.00 0.00,0.00 Z
           M 400.00,98.00
           C 393.64,89.53 376.69,79.61 367.00,74.75
             339.65,61.05 315.27,56.86 285.00,57.00
             285.00,57.00 258.00,59.44 258.00,59.44
             252.46,60.34 241.16,63.66 236.00,65.87
             230.48,68.23 226.09,71.15 220.00,72.00
             220.00,72.00 229.00,68.00 229.00,68.00
             229.00,68.00 213.00,68.00 213.00,68.00
             193.52,68.03 166.57,75.90 149.00,84.22
             142.00,87.53 129.09,93.56 124.00,99.00
             124.00,99.00 153.00,86.31 153.00,86.31
             164.48,81.71 178.75,78.32 191.00,76.72
             198.79,75.70 207.32,73.82 215.00,76.00
             204.26,79.14 184.10,95.91 176.00,104.00
             167.55,112.43 161.49,119.06 154.75,129.00
             140.11,150.55 127.04,183.70 127.00,210.00
             127.00,210.00 127.00,235.00 127.00,235.00
             127.03,251.61 133.06,272.76 139.58,288.00
             145.93,302.85 156.39,320.02 167.17,332.00
             223.76,394.88 318.80,406.88 388.00,357.42
             411.82,340.40 422.23,326.27 437.46,302.00
             437.46,302.00 443.19,294.00 443.19,294.00
             443.19,294.00 448.00,281.00 448.00,281.00
             447.51,303.40 441.56,329.32 432.99,350.00
             430.03,357.13 426.83,364.30 423.00,371.00
             420.94,374.60 417.52,378.73 418.00,383.00
             435.95,356.08 447.64,330.28 452.13,298.00
             452.13,298.00 454.00,280.00 454.00,280.00
             454.00,280.00 454.00,276.00 454.00,276.00
             454.00,276.00 453.12,265.58 453.12,265.58
             453.55,262.80 455.47,261.26 455.92,256.00
             455.92,256.00 455.92,244.91 455.92,244.91
             455.92,244.91 457.00,231.00 457.00,231.00
             457.03,211.06 457.33,201.90 452.37,182.00
             448.07,164.70 440.97,148.01 431.31,133.00
             427.43,126.97 423.57,120.61 418.00,116.00
             418.00,116.00 418.00,128.00 418.00,128.00
             418.00,128.00 406.00,118.61 406.00,118.61
             406.00,118.61 396.00,121.00 396.00,121.00
             396.00,121.00 399.37,110.00 399.37,110.00
             399.37,110.00 396.00,98.00 396.00,98.00
             396.00,98.00 400.00,98.00 400.00,98.00 Z
           M 60.00,162.00
           C 54.11,167.46 49.56,176.96 45.58,184.00
             32.72,206.76 22.04,243.78 22.00,270.00
             21.99,277.11 22.77,290.75 21.00,297.00
             21.00,297.00 17.00,265.00 17.00,265.00
             16.98,249.68 17.29,240.16 20.88,225.00
             23.40,214.40 26.33,203.17 30.19,193.00
             31.79,188.80 36.01,181.06 35.00,177.00
             20.58,210.52 13.57,236.20 14.00,273.00
             14.17,286.93 20.29,306.43 24.14,320.00
             24.14,320.00 34.05,353.00 34.05,353.00
             43.95,380.23 61.83,408.20 83.00,427.91
             106.31,449.62 134.93,464.97 165.00,475.00
             179.24,479.75 196.98,483.98 212.00,484.00
             212.00,484.00 235.00,484.00 235.00,484.00
             246.78,483.98 270.01,480.20 282.00,477.80
             304.53,473.30 321.14,469.13 341.00,456.68
             346.60,453.17 352.54,449.97 357.00,445.00
             357.00,445.00 329.00,459.69 329.00,459.69
             316.94,465.22 303.91,468.05 291.00,470.79
             274.06,474.39 261.19,475.89 244.00,477.09
             244.00,477.09 234.00,478.00 234.00,478.00
             234.00,478.00 221.00,478.00 221.00,478.00
             208.50,477.98 195.93,474.91 184.00,471.42
             157.20,463.59 124.84,448.93 103.00,431.55
             86.10,418.11 71.94,401.91 60.00,384.00
             60.00,384.00 75.00,399.91 75.00,399.91
             102.09,425.19 133.28,445.96 167.00,461.23
             173.73,464.28 188.74,469.28 196.00,471.11
             202.86,472.82 207.21,473.78 210.00,466.00
             187.23,465.50 154.69,448.69 135.00,437.42
             115.63,426.34 102.84,419.07 86.00,403.83
             69.60,389.00 50.63,366.20 41.31,346.00
             24.58,309.75 26.07,263.24 34.21,225.00
             36.98,212.01 41.47,198.95 47.26,187.00
             47.26,187.00 60.00,162.00 60.00,162.00 Z
           M 452.00,271.00
           C 452.46,274.53 451.40,275.56 449.00,278.00
             449.00,278.00 452.00,271.00 452.00,271.00 Z
           M 448.00,279.00
           C 448.00,279.00 449.00,279.00 449.00,279.00
             449.00,279.00 448.00,280.00 448.00,280.00
             448.00,280.00 448.00,279.00 448.00,279.00 Z
           M 358.00,444.00
           C 358.00,444.00 357.00,444.00 357.00,444.00
             357.00,444.00 358.00,445.00 358.00,445.00
             358.00,445.00 358.00,444.00 358.00,444.00 Z" />
</svg>
