<?xml version="1.0" encoding="UTF-8" standalone="no"?>
<!DOCTYPE svg PUBLIC "-//W3C//DTD SVG 20010904//EN"
              "http://www.w3.org/TR/2001/REC-SVG-20010904/DTD/svg10.dtd">

<svg xmlns="http://www.w3.org/2000/svg"
     width="132.275mm" height="132.275mm"
     viewBox="0 0 500 500">
  <path id="Selection #7"
        fill="#181917" stroke="black" stroke-width="1"
        d="M 126.00,86.00
           C 155.03,69.48 191.68,59.46 225.00,57.96
             225.00,57.96 233.00,57.18 233.00,57.18
             233.00,57.18 243.00,58.12 243.00,58.12
             243.00,58.12 251.00,58.12 251.00,58.12
             251.00,58.12 257.00,59.32 257.00,59.32
             257.00,59.32 280.00,57.08 280.00,57.08
             280.00,57.08 298.00,57.08 298.00,57.08
             316.63,57.03 340.89,63.11 358.00,70.43
             377.88,78.93 385.24,86.37 402.00,98.00
             402.00,98.00 399.32,112.00 399.32,112.00
             399.32,112.00 396.00,121.00 396.00,121.00
             399.06,119.66 403.63,117.56 407.00,118.64
             411.33,120.03 412.29,124.06 418.00,127.00
             418.00,127.00 418.00,116.00 418.00,116.00
             426.02,122.64 434.51,137.55 439.25,147.00
             448.81,166.07 456.97,191.50 457.00,213.00
             457.00,213.00 457.00,232.00 457.00,232.00
             457.00,232.00 456.00,251.00 456.00,251.00
             455.98,263.42 453.15,261.82 453.02,266.27
             453.02,266.27 454.00,280.00 454.00,280.00
             453.85,292.71 449.56,314.78 445.66,327.00
             441.52,339.94 436.25,352.08 429.77,364.00
             426.42,370.17 422.11,378.26 417.00,383.00
             417.00,383.00 428.14,361.00 428.14,361.00
             436.44,342.36 442.15,326.25 445.41,306.00
             446.40,299.82 448.49,286.66 447.00,281.00
             447.00,281.00 443.68,293.00 443.68,293.00
             442.62,295.46 439.75,298.51 438.10,301.00
             438.10,301.00 428.00,317.00 428.00,317.00
             401.17,356.98 354.94,383.59 307.00,387.09
             307.00,387.09 297.00,388.00 297.00,388.00
             272.06,388.29 249.04,384.43 226.00,374.57
             210.73,368.04 195.52,358.61 183.00,347.71
             152.43,321.12 132.11,283.28 127.10,243.00
             127.10,243.00 127.10,232.00 127.10,232.00
             127.10,232.00 126.04,224.00 126.04,224.00
             126.04,224.00 127.00,207.00 127.00,207.00
             127.24,186.60 137.28,159.89 146.78,142.00
             162.15,113.05 186.91,91.18 215.00,75.00
             194.23,75.00 174.58,78.57 155.00,85.54
             155.00,85.54 135.00,94.25 135.00,94.25
             131.55,95.97 127.94,98.53 124.00,98.00
             144.96,84.36 168.26,74.41 193.00,70.28
             199.63,69.18 206.27,68.01 213.00,68.00
             226.58,67.98 233.91,69.24 246.00,61.00
             216.13,61.00 196.09,62.05 167.00,70.72
             158.80,73.16 146.78,77.74 139.00,81.31
             135.04,83.13 130.42,86.60 126.00,86.00 Z
           M 217.00,74.00
           C 217.00,74.00 216.00,74.00 216.00,74.00
             216.00,74.00 217.00,75.00 217.00,75.00
             217.00,75.00 217.00,74.00 217.00,74.00 Z
           M 59.00,162.00
           C 59.51,166.50 55.41,171.12 53.31,175.00
             49.13,182.71 44.77,191.81 41.68,200.00
             34.67,218.62 31.05,238.23 29.04,258.00
             29.04,258.00 29.04,267.00 29.04,267.00
             29.04,267.00 28.00,280.00 28.00,280.00
             28.00,280.00 28.91,290.00 28.91,290.00
             30.24,309.30 33.10,328.22 41.31,346.00
             53.28,371.95 80.04,401.18 103.00,417.84
             103.00,417.84 141.00,440.77 141.00,440.77
             160.02,451.11 188.15,465.52 210.00,466.00
             207.21,473.78 202.86,472.82 196.00,471.11
             188.74,469.28 173.73,464.28 167.00,461.23
             133.04,445.85 100.94,424.85 74.00,398.96
             74.00,398.96 61.00,385.00 61.00,385.00
             67.99,397.45 77.97,407.98 88.00,418.00
             110.94,440.93 134.37,452.76 164.00,464.60
             180.15,471.05 203.62,477.97 221.00,478.00
             221.00,478.00 234.00,478.00 234.00,478.00
             234.00,478.00 244.00,477.09 244.00,477.09
             267.51,475.44 291.33,472.04 314.00,465.28
             324.44,462.17 335.65,456.96 345.00,451.40
             349.87,448.50 352.67,446.38 358.00,444.00
             351.79,451.45 335.96,459.84 327.00,464.24
             311.44,471.90 296.81,474.84 280.00,478.20
             268.90,480.42 245.87,483.98 235.00,484.00
             235.00,484.00 210.00,484.00 210.00,484.00
             192.70,483.79 171.16,477.52 155.00,471.42
             114.26,456.04 78.52,430.99 54.69,394.00
             36.32,365.48 30.63,342.76 21.58,311.00
             17.99,298.42 14.02,284.14 14.00,271.00
             13.97,249.97 16.00,235.39 21.13,215.00
             23.59,205.19 29.97,184.58 36.00,177.00
             36.00,177.00 28.69,197.00 28.69,197.00
             28.69,197.00 24.43,211.00 24.43,211.00
             16.81,237.73 13.12,270.14 22.00,297.00
             22.00,297.00 22.00,270.00 22.00,270.00
             22.04,245.00 31.66,211.30 42.81,189.00
             47.50,179.61 53.19,170.72 59.00,162.00 Z
           M 450.00,277.00
           C 450.00,277.00 449.00,277.00 449.00,277.00
             449.00,277.00 450.00,278.00 450.00,278.00
             450.00,278.00 450.00,277.00 450.00,277.00 Z
           M 449.00,279.00
           C 449.00,279.00 448.00,279.00 448.00,279.00
             448.00,279.00 449.00,280.00 449.00,280.00
             449.00,280.00 449.00,279.00 449.00,279.00 Z
           M 61.00,384.00
           C 61.00,384.00 60.00,384.00 60.00,384.00
             60.00,384.00 61.00,385.00 61.00,385.00
             61.00,385.00 61.00,384.00 61.00,384.00 Z" />
</svg>
