<?xml version="1.0" encoding="UTF-8" standalone="no"?>
<!DOCTYPE svg PUBLIC "-//W3C//DTD SVG 20010904//EN"
              "http://www.w3.org/TR/2001/REC-SVG-20010904/DTD/svg10.dtd">

<svg xmlns="http://www.w3.org/2000/svg"
     width="158.73mm" height="132.275mm"
     viewBox="0 0 600 500">
  <path id="Selection #3"
        fill="#181917" stroke="black" stroke-width="1"
        d="M 64.00,202.00
           C 66.60,202.00 71.46,201.65 73.61,203.02
             77.07,205.22 78.41,212.86 84.18,218.91
             90.21,225.23 97.53,227.19 106.00,226.99
             120.82,226.63 136.05,211.53 123.53,198.30
             118.80,193.30 112.24,191.08 106.00,188.60
             89.36,182.00 72.77,178.84 65.47,160.00
             64.14,156.59 63.18,151.66 63.04,148.00
             62.45,132.99 70.65,119.03 85.00,113.71
             93.59,110.52 101.05,110.90 110.00,111.00
             114.46,111.06 129.37,112.98 132.41,115.85
             134.31,117.65 134.69,122.46 134.93,125.00
             134.93,125.00 136.00,146.00 136.00,146.00
             133.65,146.00 128.55,146.38 126.70,145.01
             124.82,143.62 122.87,137.43 121.63,135.00
             117.92,127.75 111.50,121.49 103.00,121.04
             87.90,120.26 78.46,133.08 84.09,143.00
             89.33,152.26 99.58,155.53 109.00,158.67
             123.98,163.66 139.38,169.02 144.21,186.00
             145.40,190.17 145.51,196.67 145.15,201.00
             143.71,218.40 135.89,229.06 119.00,234.90
             111.20,237.60 102.18,237.09 94.00,237.00
             85.73,236.90 81.62,235.08 74.00,232.72
             71.34,231.89 67.63,231.09 66.02,228.61
             64.58,226.38 65.03,220.75 65.00,218.00
             65.00,218.00 64.00,202.00 64.00,202.00 Z
           M 275.00,202.00
           C 273.92,207.93 271.97,224.68 268.49,228.66
             265.52,232.07 259.29,233.82 255.00,234.87
             243.03,237.79 232.19,237.02 220.00,237.00
             185.13,236.95 159.40,212.01 159.00,177.00
             158.70,149.79 172.35,124.21 199.00,114.70
             212.75,109.79 234.49,110.11 249.00,111.85
             252.77,112.30 262.82,113.37 265.49,115.73
             267.55,117.56 268.40,121.41 269.14,124.00
             271.17,131.12 272.66,136.49 273.00,144.00
             270.11,144.00 265.61,144.33 263.09,142.98
             263.09,142.98 248.00,128.53 248.00,128.53
             238.82,121.45 222.68,118.08 212.00,123.42
             201.36,128.74 194.89,140.87 192.13,152.00
             185.87,177.29 187.31,219.15 219.00,226.32
             232.33,229.34 243.07,224.13 252.99,215.56
             256.94,212.15 262.25,204.55 265.09,203.02
             267.60,201.67 272.12,202.00 275.00,202.00 Z
           M 286.00,113.00
           C 286.00,113.00 297.00,112.32 297.00,112.32
             297.00,112.32 340.00,113.00 340.00,113.00
             343.33,113.01 350.97,112.84 348.38,118.69
             346.42,123.14 334.12,120.59 331.02,125.31
             329.55,127.56 330.00,135.07 330.00,138.00
             330.00,138.00 330.00,168.04 330.00,168.04
             330.00,168.04 345.00,168.04 345.00,168.04
             345.00,168.04 357.00,169.00 357.00,169.00
             357.00,169.00 380.00,169.00 380.00,169.00
             380.00,169.00 394.00,168.00 394.00,168.00
             394.00,168.00 394.00,137.00 394.00,137.00
             393.96,133.69 393.78,128.17 391.42,125.65
             388.81,122.87 379.14,120.76 375.00,119.00
             377.36,108.10 382.30,112.98 397.00,113.00
             397.00,113.00 438.00,113.00 438.00,113.00
             438.00,113.00 438.00,121.00 438.00,121.00
             433.93,121.34 424.34,122.81 422.02,126.39
             420.78,128.31 421.00,131.75 421.00,134.00
             421.00,134.00 421.00,223.00 421.00,223.00
             421.00,223.00 438.00,227.00 438.00,227.00
             438.00,227.00 438.00,235.00 438.00,235.00
             438.00,235.00 375.00,235.00 375.00,235.00
             375.00,235.00 375.00,227.00 375.00,227.00
             375.00,227.00 393.00,224.00 393.00,224.00
             393.00,224.00 394.00,210.00 394.00,210.00
             394.00,210.00 394.00,179.00 394.00,179.00
             394.00,179.00 378.00,178.00 378.00,178.00
             378.00,178.00 330.00,179.00 330.00,179.00
             330.00,179.00 330.00,216.00 330.00,216.00
             330.01,218.54 329.65,222.35 331.60,224.26
             335.24,227.86 346.08,225.27 348.40,230.28
             349.05,231.66 348.95,233.51 349.00,235.00
             349.00,235.00 285.00,235.00 285.00,235.00
             285.00,235.00 286.00,227.00 286.00,227.00
             289.82,226.82 299.75,225.87 301.98,222.57
             302.94,221.15 303.97,206.58 304.00,204.00
             304.00,204.00 304.00,137.00 304.00,137.00
             304.00,137.00 303.00,122.00 303.00,122.00
             303.00,122.00 286.00,120.00 286.00,120.00
             286.00,120.00 286.00,113.00 286.00,113.00 Z
           M 451.00,115.00
           C 451.00,115.00 547.00,115.00 547.00,115.00
             547.00,115.00 554.26,115.99 554.26,115.99
             554.26,115.99 556.08,123.00 556.08,123.00
             556.08,123.00 557.00,142.00 557.00,142.00
             554.55,142.00 550.45,142.29 548.39,140.98
             544.94,138.78 543.62,131.12 538.82,127.85
             535.73,125.75 531.58,126.01 528.00,126.00
             528.00,126.00 509.00,126.00 509.00,126.00
             505.47,126.01 499.18,125.80 496.60,128.56
             494.96,130.31 495.05,132.77 495.00,135.00
             495.00,135.00 495.00,167.00 495.00,167.00
             495.00,167.00 508.00,167.97 508.00,167.97
             508.00,167.97 519.00,167.01 519.00,167.01
             524.35,166.82 529.94,166.69 533.44,161.94
             535.99,158.49 535.96,154.09 536.00,150.00
             536.00,150.00 546.00,151.00 546.00,151.00
             546.00,151.00 545.00,194.00 545.00,194.00
             543.00,193.99 539.34,194.26 537.72,193.01
             535.13,191.00 535.50,184.31 530.79,180.72
             525.75,176.89 512.67,178.13 506.17,177.90
             503.42,177.80 498.66,177.52 496.60,179.60
             494.67,181.54 495.01,185.45 495.21,188.00
             495.21,188.00 495.21,215.00 495.21,215.00
             495.85,218.17 495.85,222.19 498.31,224.49
             500.89,226.89 512.00,228.25 516.00,229.00
             516.00,229.00 516.00,236.00 516.00,236.00
             516.00,236.00 470.00,236.00 470.00,236.00
             465.94,236.01 453.30,238.29 451.02,235.40
             449.84,233.91 450.02,230.83 450.00,229.00
             454.47,228.16 465.65,226.82 467.98,222.86
             469.20,220.79 469.00,217.36 469.00,215.00
             469.00,215.00 469.00,157.00 469.00,157.00
             469.00,157.00 468.00,142.00 468.00,142.00
             468.00,142.00 468.00,126.00 468.00,126.00
             464.85,125.56 453.78,123.57 451.99,121.28
             450.82,119.77 451.02,116.84 451.00,115.00 Z" />
</svg>
