<?xml version="1.0" encoding="UTF-8" standalone="no"?>
<!DOCTYPE svg PUBLIC "-//W3C//DTD SVG 20010904//EN"
              "http://www.w3.org/TR/2001/REC-SVG-20010904/DTD/svg10.dtd">

<svg xmlns="http://www.w3.org/2000/svg"
     width="158.73mm" height="68.7831mm"
     viewBox="0 0 600 260">
  <path id="Selection #1"
        fill="#FFFFFF" stroke="black" stroke-width="1"
        d="M 0.00,0.00
           C 0.00,0.00 600.00,0.00 600.00,0.00
             600.00,0.00 600.00,260.00 600.00,260.00
             600.00,260.00 0.00,260.00 0.00,260.00
             0.00,260.00 0.00,0.00 0.00,0.00 Z
           M 91.00,71.00
           C 91.00,71.00 80.00,68.37 80.00,68.37
             69.11,65.66 63.99,65.88 53.00,66.00
             42.77,66.12 30.65,70.16 23.13,77.30
             7.26,92.49 7.71,119.52 23.13,134.91
             36.94,148.75 67.01,151.46 78.89,163.09
             87.58,171.48 87.71,181.29 78.89,189.67
             67.60,200.24 47.03,199.47 36.17,188.82
             33.34,186.04 30.23,181.57 28.49,178.00
             27.29,175.55 25.55,170.52 23.37,168.99
             21.34,167.58 15.57,168.00 13.21,168.00
             13.21,168.00 13.21,192.00 13.21,192.00
             13.75,194.45 13.90,198.51 15.60,200.30
             17.38,202.17 22.46,203.44 25.00,204.12
             34.09,206.53 38.35,207.98 48.00,208.00
             56.53,208.01 63.66,208.59 72.00,206.25
             94.10,200.05 105.50,183.54 104.99,161.00
             104.89,156.94 104.16,152.88 102.96,149.00
             95.58,125.09 68.42,122.67 49.00,113.96
             38.57,109.28 28.84,98.67 35.53,87.00
             44.03,72.18 65.17,74.03 75.21,88.00
             83.22,99.13 78.95,104.83 89.00,105.00
             89.00,105.00 94.00,105.00 94.00,105.00
             94.00,90.95 93.53,84.90 91.00,71.00 Z
           M 250.00,70.00
           C 250.00,70.00 219.00,66.00 219.00,66.00
             219.00,66.00 197.00,66.00 197.00,66.00
             182.09,66.02 166.73,71.45 155.00,80.67
             144.64,88.82 136.21,100.42 132.19,113.00
             121.02,147.98 133.54,189.10 170.00,202.94
             186.16,209.07 213.95,209.36 231.00,206.73
             236.94,205.81 248.45,203.21 252.44,198.61
             254.33,196.43 255.37,191.83 255.99,189.00
             257.35,182.71 258.94,174.35 259.00,168.00
             256.74,168.00 251.18,167.76 249.32,168.57
             249.32,168.57 234.00,184.83 234.00,184.83
             223.36,194.34 211.31,199.24 197.00,196.53
             163.86,190.28 159.54,149.10 163.43,122.00
             164.31,115.84 165.29,111.88 167.34,106.00
             170.87,95.92 177.45,85.60 187.00,80.35
             199.96,73.23 218.98,77.24 230.00,86.33
             232.78,88.62 238.30,94.22 240.70,97.00
             242.55,99.14 244.53,102.31 247.17,103.40
             249.19,104.23 254.60,104.00 257.00,104.00
             256.99,88.61 253.13,83.71 250.00,70.00 Z
           M 351.00,68.98
           C 351.00,68.98 332.00,68.98 332.00,68.98
             332.00,68.98 321.00,68.98 321.00,68.98
             321.00,68.98 290.00,68.98 290.00,68.98
             290.00,68.98 280.00,68.98 280.00,68.98
             280.02,70.88 279.84,73.87 281.02,75.42
             282.94,77.93 295.49,78.72 299.00,79.00
             299.00,79.00 300.00,123.00 300.00,123.00
             300.00,123.00 300.00,175.00 300.00,175.00
             300.00,175.00 299.00,194.00 299.00,194.00
             299.00,194.00 280.00,197.00 280.00,197.00
             280.00,197.00 279.00,205.86 279.00,205.86
             279.00,205.86 309.00,205.86 309.00,205.86
             309.00,205.86 351.00,205.86 351.00,205.86
             350.98,204.09 351.16,201.15 349.98,199.56
             347.91,196.77 333.79,195.31 330.00,195.00
             330.00,195.00 330.00,143.00 330.00,143.00
             344.68,141.06 370.21,141.98 386.00,142.00
             386.00,142.00 402.00,143.00 402.00,143.00
             402.00,143.00 403.00,162.00 403.00,162.00
             403.00,162.00 402.00,184.00 402.00,184.00
             401.99,186.65 402.33,190.38 400.40,192.44
             396.84,196.25 383.98,194.28 381.60,199.30
             380.87,200.84 381.01,204.24 381.00,206.00
             381.00,206.00 399.00,206.00 399.00,206.00
             399.00,206.00 409.00,205.18 409.00,205.18
             409.00,205.18 421.00,206.00 421.00,206.00
             421.00,206.00 452.00,206.00 452.00,206.00
             452.00,206.00 452.00,197.00 452.00,197.00
             448.27,196.16 435.89,193.59 434.02,190.70
             432.79,188.79 433.00,185.24 433.00,183.00
             433.00,183.00 433.00,92.00 433.00,92.00
             433.00,89.66 432.80,86.26 434.02,84.22
             436.48,80.14 447.46,78.38 452.00,78.00
             452.00,78.00 453.00,69.00 453.00,69.00
             453.00,69.00 401.00,69.00 401.00,69.00
             396.95,68.95 385.58,66.51 383.01,69.60
             382.10,70.69 381.40,74.45 381.00,76.00
             385.80,77.77 398.49,80.08 400.98,84.22
             402.30,86.42 401.96,91.23 402.28,94.00
             403.34,102.93 403.12,112.01 403.00,121.00
             402.96,123.40 403.05,126.55 401.26,128.41
             398.96,130.80 391.25,130.98 388.00,131.00
             388.00,131.00 358.00,131.00 358.00,131.00
             358.00,131.00 346.00,130.04 346.00,130.04
             346.00,130.04 330.00,130.04 330.00,130.04
             330.00,130.04 330.00,90.00 330.00,90.00
             330.01,87.44 329.65,83.67 331.60,81.73
             335.54,77.80 348.18,80.24 350.40,75.69
             351.13,74.19 350.99,70.73 351.00,68.98 Z
           M 595.00,100.00
           C 595.00,100.00 594.09,78.00 594.09,78.00
             594.09,78.00 592.26,69.99 592.26,69.99
             592.26,69.99 585.00,69.00 585.00,69.00
             585.00,69.00 542.00,69.00 542.00,69.00
             542.00,69.00 526.00,70.00 526.00,70.00
             526.00,70.00 510.00,69.00 510.00,69.00
             510.00,69.00 475.00,69.00 475.00,69.00
             475.00,69.00 475.00,77.00 475.00,77.00
             479.13,77.93 490.92,79.86 492.98,83.23
             494.30,85.39 493.97,89.47 494.00,92.00
             494.00,92.00 495.00,105.00 495.00,105.00
             495.00,105.00 495.00,167.00 495.00,167.00
             495.08,173.64 497.87,187.08 494.02,192.72
             491.42,196.52 478.68,198.12 474.00,199.00
             474.01,202.21 473.30,206.56 477.15,207.69
             480.18,208.58 485.76,207.31 489.00,207.00
             489.00,207.00 500.00,207.00 500.00,207.00
             500.00,207.00 512.00,206.01 512.00,206.01
             512.00,206.01 524.00,207.00 524.00,207.00
             524.00,207.00 549.00,207.00 549.00,207.00
             549.00,204.72 549.30,200.37 547.98,198.51
             544.34,193.41 530.46,197.44 526.65,189.89
             524.97,186.57 525.01,181.66 525.00,178.00
             525.00,178.00 525.00,141.00 525.00,141.00
             533.61,140.97 555.87,139.63 563.00,142.70
             571.38,146.31 570.22,155.40 573.70,158.01
             575.37,159.26 578.96,158.99 581.00,159.00
             581.00,159.00 581.00,137.00 581.00,137.00
             581.00,137.00 582.00,121.00 582.00,121.00
             582.00,118.72 582.35,113.34 580.98,111.60
             579.33,109.52 574.45,110.00 572.00,110.00
             571.44,114.21 571.23,120.64 568.57,123.89
             564.92,128.36 558.38,128.74 553.00,129.00
             553.00,129.00 538.00,129.99 538.00,129.99
             538.00,129.99 525.00,129.00 525.00,129.00
             525.00,129.00 524.00,114.00 524.00,114.00
             524.00,114.00 524.96,100.00 524.96,100.00
             524.77,95.21 522.38,87.45 526.51,83.73
             528.53,81.92 533.33,81.28 536.00,80.92
             536.00,80.92 560.00,80.92 560.00,80.92
             564.90,80.92 570.96,80.35 574.96,83.43
             581.51,88.48 581.56,96.51 585.39,98.98
             587.52,100.35 592.42,100.00 595.00,100.00 Z" />
</svg>
