<?xml version="1.0" encoding="UTF-8" standalone="no"?>
<!DOCTYPE svg PUBLIC "-//W3C//DTD SVG 20010904//EN"
              "http://www.w3.org/TR/2001/REC-SVG-20010904/DTD/svg10.dtd">

<svg xmlns="http://www.w3.org/2000/svg"
     width="138.73mm" height="62.7831mm"
     viewBox="0 0 600 260">
  <path id="Selection #4"
        fill="#181917" stroke="black" stroke-width="1"
        d="M 0.00,0.00
           C 0.00,0.00 600.00,0.00 600.00,0.00
             600.00,0.00 600.00,260.00 600.00,260.00
             600.00,260.00 0.00,260.00 0.00,260.00
             0.00,260.00 0.00,0.00 0.00,0.00 Z
           M 93.00,104.00
           C 93.00,94.08 93.06,91.99 91.85,82.00
             91.54,79.47 91.09,74.62 89.26,72.81
             86.77,70.33 74.82,68.19 71.00,67.59
             48.60,64.08 23.02,69.07 14.55,93.00
             12.95,97.49 11.69,104.26 12.29,109.00
             12.86,113.53 14.39,118.87 16.32,123.00
             24.13,139.67 40.89,145.01 57.00,150.66
             64.95,153.44 75.01,156.87 80.90,163.04
             95.06,177.87 80.87,197.75 59.00,198.00
             47.13,198.13 40.13,195.42 32.33,186.00
             27.23,179.84 25.10,171.80 22.51,170.02
             20.57,168.70 16.34,169.00 14.00,169.00
             14.00,169.00 14.00,186.00 14.00,186.00
             14.01,188.79 14.39,197.22 15.99,199.30
             17.54,201.31 23.46,202.57 26.00,203.29
             35.09,205.87 44.51,207.60 54.00,207.26
             60.06,207.03 66.14,207.03 72.00,205.23
             93.40,198.63 104.49,183.11 103.99,161.00
             103.35,132.95 80.08,126.03 58.00,118.67
             46.69,114.90 30.75,107.47 32.20,93.00
             33.40,81.05 45.35,75.76 56.00,76.01
             64.12,76.21 71.31,80.29 75.90,87.01
             75.90,87.01 84.51,102.98 84.51,102.98
             86.40,104.30 90.69,104.00 93.00,104.00 Z
           M 256.00,104.00
           C 255.99,93.58 254.83,90.81 252.00,81.00
             251.27,78.45 250.28,73.61 248.30,71.90
             246.22,70.12 237.97,69.06 235.00,68.59
             221.79,66.52 208.34,66.85 195.00,67.00
             168.88,67.31 144.07,86.18 134.45,110.00
             131.55,117.19 130.65,123.41 129.84,131.00
             129.46,134.51 128.88,136.23 129.09,140.00
             130.75,169.30 144.84,193.69 174.00,203.25
             187.41,207.65 201.14,207.06 215.00,207.00
             224.21,206.96 245.33,205.09 251.49,197.79
             255.05,193.57 257.87,174.87 258.00,169.00
             255.89,169.00 252.04,168.83 250.17,169.60
             247.00,170.90 240.85,179.82 237.83,182.83
             229.50,191.16 219.06,197.86 207.00,198.00
             201.14,198.06 197.70,198.12 192.00,196.25
             174.67,190.58 165.17,174.30 162.44,157.00
             162.44,157.00 161.91,147.00 161.91,147.00
             161.91,147.00 161.08,139.00 161.08,139.00
             161.08,133.31 162.77,118.63 164.13,113.00
             167.78,97.88 177.52,80.09 194.00,76.52
             197.07,75.85 200.83,75.99 204.00,76.00
             215.61,76.05 225.47,80.23 234.00,88.09
             247.44,100.47 243.10,103.95 256.00,104.00 Z
           M 350.00,70.00
           C 350.00,70.00 302.00,70.00 302.00,70.00
             302.00,70.00 281.00,70.00 281.00,70.00
             281.00,70.00 281.00,76.00 281.00,76.00
             285.42,76.36 296.47,76.76 299.07,80.30
             301.14,83.13 300.99,88.60 301.00,92.00
             301.00,92.00 301.00,177.00 301.00,177.00
             301.00,177.00 300.00,195.00 300.00,195.00
             300.00,195.00 281.00,198.00 281.00,198.00
             281.00,198.00 280.00,206.00 280.00,206.00
             293.76,204.19 320.17,204.83 335.00,205.00
             342.95,205.10 340.74,205.72 350.00,205.00
             349.84,203.08 349.94,201.31 348.40,199.85
             346.10,197.68 332.66,196.30 329.00,196.00
             329.00,196.00 329.00,142.00 329.00,142.00
             329.00,142.00 343.00,141.32 343.00,141.32
             343.00,141.32 403.00,142.00 403.00,142.00
             403.00,142.00 404.00,164.00 404.00,164.00
             404.00,164.00 403.00,186.00 403.00,186.00
             402.95,188.37 402.99,190.75 401.40,192.70
             398.78,195.91 386.37,197.41 382.00,198.00
             382.00,198.00 382.00,205.00 382.00,205.00
             382.00,205.00 428.00,205.00 428.00,205.00
             428.00,205.00 451.00,205.00 451.00,205.00
             450.98,203.46 451.09,200.79 450.43,199.42
             448.29,195.02 436.65,195.58 433.60,192.42
             431.67,190.41 432.01,186.60 432.00,184.00
             432.00,184.00 432.00,91.00 432.00,91.00
             432.01,88.25 431.67,84.70 433.60,82.50
             439.85,75.33 451.25,82.56 452.00,70.00
             452.00,70.00 405.00,70.00 405.00,70.00
             405.00,70.00 383.00,69.00 383.00,69.00
             383.00,69.00 383.00,76.00 383.00,76.00
             388.12,77.03 398.22,78.97 401.40,83.21
             403.61,86.16 402.85,91.30 403.14,95.00
             404.60,106.12 404.46,119.91 403.14,131.00
             403.14,131.00 387.00,132.00 387.00,132.00
             387.00,132.00 366.00,132.00 366.00,132.00
             366.00,132.00 353.00,131.00 353.00,131.00
             353.00,131.00 329.00,131.00 329.00,131.00
             329.00,131.00 329.00,88.00 329.00,88.00
             329.05,85.67 329.01,83.21 330.60,81.31
             333.22,78.18 345.77,77.19 350.00,77.00
             350.00,77.00 350.00,70.00 350.00,70.00 Z
           M 594.00,99.00
           C 594.00,99.00 593.17,79.00 593.17,79.00
             593.17,79.00 591.26,70.99 591.26,70.99
             591.26,70.99 584.00,70.00 584.00,70.00
             584.00,70.00 476.00,70.00 476.00,70.00
             476.37,81.55 486.39,75.82 492.69,80.85
             495.84,83.38 494.96,89.32 495.00,93.00
             495.00,93.00 496.00,108.00 496.00,108.00
             496.00,108.00 496.00,168.00 496.00,168.00
             496.03,174.14 498.87,189.70 494.41,194.30
             490.64,198.19 478.42,197.67 475.99,200.73
             474.82,202.21 475.02,205.19 475.00,207.00
             475.00,207.00 495.00,206.00 495.00,206.00
             495.00,206.00 548.00,206.00 548.00,206.00
             548.00,206.00 548.00,198.00 548.00,198.00
             541.87,196.85 529.26,196.29 525.98,190.89
             524.30,188.12 524.04,183.21 524.00,180.00
             524.00,180.00 524.00,148.00 524.00,148.00
             524.15,139.85 526.78,140.01 534.00,140.00
             540.97,139.99 559.46,139.19 564.96,142.17
             574.59,147.40 567.60,157.56 580.00,158.00
             580.00,158.00 580.00,140.00 580.00,140.00
             580.00,140.00 580.96,128.00 580.96,128.00
             580.96,128.00 580.96,111.00 580.96,111.00
             579.05,111.01 575.28,110.74 573.74,111.99
             571.81,113.55 572.17,116.80 571.79,119.00
             571.15,122.73 569.41,125.89 565.96,127.69
             562.31,129.59 554.19,129.99 550.00,130.00
             550.00,130.00 524.00,130.00 524.00,130.00
             524.00,130.00 523.01,115.00 523.01,115.00
             523.16,108.56 524.46,106.01 523.91,98.00
             523.56,92.91 521.51,86.46 526.28,82.59
             529.15,80.27 536.35,80.02 540.00,80.00
             540.00,80.00 564.00,80.00 564.00,80.00
             568.82,80.01 572.99,79.72 576.79,83.28
             581.08,87.30 582.90,95.75 586.39,97.98
             588.35,99.23 591.72,98.99 594.00,99.00 Z" />
</svg>
